<svg width="48" height="49" viewBox="0 0 48 49" fill="none" xmlns="http://www.w3.org/2000/svg">
<rect y="0.798828" width="48" height="48" rx="24" fill="#4F7CFB"/>
<path d="M32.9058 21.0677C32.9058 21.2646 32.9058 21.4616 32.9058 21.6304C32.9058 27.454 28.4607 34.1779 20.3583 34.1779C17.8544 34.1779 15.5475 33.4464 13.5781 32.2085C13.9157 32.2367 14.2815 32.2648 14.6191 32.2648C16.6728 32.2648 18.5859 31.5615 20.1051 30.3799C18.1639 30.3517 16.5321 29.0576 15.9976 27.3133C16.2789 27.3696 16.5321 27.3977 16.8416 27.3977C17.2355 27.3977 17.6293 27.3415 17.9951 27.2289C15.9695 26.8351 14.4503 25.0627 14.4503 22.9245C14.4503 22.8964 14.4503 22.8964 14.4503 22.8682C15.0411 23.2059 15.7163 23.4028 16.4477 23.4309C15.2661 22.6432 14.4784 21.2928 14.4784 19.7454C14.4784 18.9296 14.7035 18.17 15.0692 17.5229C17.2355 20.1956 20.4989 21.9398 24.1563 22.1368C24.0719 21.8273 24.0438 21.4616 24.0438 21.124C24.0438 18.6764 26.0131 16.707 28.4607 16.707C29.7267 16.707 30.8802 17.2416 31.6679 18.0856C32.6807 17.8886 33.6091 17.5229 34.4813 17.0165C34.1437 18.0574 33.4403 18.9014 32.54 19.4641C33.4403 19.3516 34.2843 19.1265 35.0721 18.7608C34.5094 19.661 33.7779 20.4488 32.9058 21.0677Z" fill="#EBFFE0"/>
</svg>
