<svg width="52" height="53" viewBox="0 0 52 53" fill="none" xmlns="http://www.w3.org/2000/svg">
<circle cx="26" cy="26.6973" r="26" fill="#B5F765"/>
<path d="M45.9663 21.8555L39.082 24.2068V34.8171C41.2891 34.831 43.2471 33.4036 43.909 31.298L46.6636 22.5358C46.7978 22.109 46.3897 21.7109 45.9663 21.8555Z" fill="#1F043A" stroke="#21033D" stroke-width="0.0272972"/>
<path d="M43.9277 26.2996L40.1762 29.718L39.082 33.0861C40.5378 32.9405 41.7852 31.9824 42.3014 30.6134L43.9277 26.2996Z" fill="#EBFFE0"/>
<path d="M6.03369 21.8555L12.918 24.2068V34.8171C10.7109 34.831 8.75293 33.4036 8.09101 31.298L5.33642 22.5358C5.20223 22.109 5.61028 21.7109 6.03369 21.8555Z" fill="#1F043A" stroke="#21033D" stroke-width="0.0272972"/>
<path d="M8.07227 26.2996L11.8238 29.718L12.918 33.0861C11.4622 32.9405 10.2148 31.9824 9.69864 30.6134L8.07227 26.2996Z" fill="#EBFFE0"/>
<rect x="12.9141" y="10.3127" width="26.1671" height="34.3951" rx="7.84116" fill="#1F043A"/>
<path d="M12.9219 10.1115V21.0638L18.1633 15.2254L13.328 9.95348C13.1839 9.79637 12.9219 9.89832 12.9219 10.1115Z" fill="#1F043A"/>
<path d="M34.9225 15.1612L37.1173 10.1862C37.1725 10.0611 37.1126 9.91657 36.9826 9.87394C29.8096 7.52084 15.797 8.33901 15.2969 15.2866C15.2969 15.2866 33.8878 15.3518 34.9225 15.1612Z" fill="#1F043A"/>
<path d="M15.0391 29.2532H36.9521V35.9832C36.9521 39.7053 33.9347 42.7227 30.2126 42.7227H21.7786C18.0565 42.7227 15.0391 39.7053 15.0391 35.9832V29.2532Z" fill="#EBFFE0"/>
<path d="M32.3614 19.2476C30.4941 19.2476 28.2228 20.6049 26.9624 21.4711C26.6809 21.6648 26.3456 21.7688 26.0021 21.7688C25.6585 21.7688 25.3233 21.6648 25.0417 21.4711C23.7813 20.6044 21.51 19.2476 19.6427 19.2476C14.4607 19.2476 15.0345 24.5668 15.0345 24.5668L15.0346 33.9166C15.2708 33.1577 15.7906 34.3162 16.7517 34.6961C17.7128 35.0759 17.2764 37.0209 17.2764 37.0209C17.5849 36.0026 18.6384 35.0351 19.2564 34.7787C20.3316 34.3341 22.9333 34.3042 25.676 34.2921C28.5706 34.2796 31.887 34.3007 33.0212 34.7697C37.0379 36.4314 36.8553 34.484 36.8553 34.484C36.8553 34.484 36.9699 31.0204 36.9699 24.5668C36.9699 24.5668 37.4188 19.2476 32.3614 19.2476Z" fill="#EBFFE0"/>
<path d="M19.0802 33.0332C20.9017 32.2303 21.2318 31.1642 21.4415 30.2857C21.8482 28.6277 23.5229 28.0208 23.6406 28.6394C23.3687 31.9412 21.264 33.2219 19.152 33.4505C18.8927 33.4785 18.8415 33.1384 19.0802 33.0332Z" fill="#1F043A"/>
<ellipse rx="3.94864" ry="3.93048" transform="matrix(-1 0 0 1 19.731 28.0504)" fill="#1F043A"/>
<circle r="2.61025" transform="matrix(-1 0 0 1 19.7335 28.0504)" fill="#B5F765"/>
<path d="M24.5673 26.0179C24.4621 26.3996 24.0619 26.6186 23.6837 26.5015L16.6086 24.3102C16.2468 24.1982 16.0393 23.8191 16.14 23.4539L16.3423 22.72C16.443 22.3549 16.8154 22.1356 17.1835 22.2248L24.382 23.9682C24.7669 24.0614 24.9983 24.4545 24.8931 24.8362L24.5673 26.0179Z" fill="#1F043A"/>
<circle cx="19.7286" cy="28.0504" r="1.20518" fill="#1F043A"/>
<path d="M32.7441 33.0332C30.9226 32.2303 30.5925 31.1642 30.3827 30.2857C29.976 28.6277 28.3013 28.0208 28.1836 28.6394C28.4555 31.9412 30.5602 33.2219 32.6722 33.4505C32.9315 33.4785 32.9827 33.1384 32.7441 33.0332Z" fill="#1F043A"/>
<ellipse cx="32.0932" cy="28.0504" rx="3.94864" ry="3.93048" fill="#1F043A"/>
<circle cx="32.0907" cy="28.0504" r="2.61025" fill="#B5F765"/>
<path d="M27.2569 26.0179C27.3621 26.3996 27.7623 26.6186 28.1405 26.5015L35.2156 24.3102C35.5774 24.1982 35.7849 23.8191 35.6842 23.4539L35.4819 22.72C35.3813 22.3549 35.0088 22.1356 34.6407 22.2248L27.4422 23.9682C27.0574 24.0614 26.8259 24.4545 26.9312 24.8362L27.2569 26.0179Z" fill="#1F043A"/>
<circle r="1.20518" transform="matrix(-1 0 0 1 32.0956 28.0504)" fill="#1F043A"/>
<path d="M18.043 36.081C18.043 35.4355 18.5663 34.9121 19.2119 34.9121H32.4427C33.0883 34.9121 33.6116 35.4355 33.6116 36.081V36.1709C33.6116 38.8565 31.4345 41.0336 28.7489 41.0336H22.9057C20.2201 41.0336 18.043 38.8565 18.043 36.1709V36.081Z" fill="#1F043A"/>
<path d="M22.1894 38.1127C22.0545 38.3464 21.717 38.3464 21.582 38.1127L20.4707 36.1877L23.3008 36.1877L22.1894 38.1127Z" fill="#EBFFE0"/>
<path d="M29.916 38.1127C29.781 38.3464 29.4436 38.3464 29.3086 38.1127L28.1973 36.1877L31.0273 36.1877L29.916 38.1127Z" fill="#EBFFE0"/>
<path d="M27.1046 32.9025H24.8822C24.3786 32.9043 23.7622 32.4482 23.898 31.6532C24.1101 30.4927 24.2825 29.4708 24.4564 28.567C24.7942 27.0913 27.0575 27.2347 27.3743 28.52C27.599 29.4211 27.8208 30.4435 28.0829 31.6055C28.255 32.4204 27.6181 32.9045 27.1046 32.9025Z" fill="#1F043A"/>
</svg>
